<mxfile host="Electron" modified="2024-07-23T13:49:47.692Z" agent="Mozilla/5.0 (Windows NT 10.0; Win64; x64) AppleWebKit/537.36 (KHTML, like Gecko) draw.io/24.6.4 Chrome/124.0.6367.207 Electron/30.0.6 Safari/537.36" etag="Uz5b26VDhGDj0JjndMoK" version="24.6.4" type="device">
  <diagram name="Page-1" id="g2W6a4q4qiPOxWQVh_2o">
    <mxGraphModel dx="988" dy="570" grid="1" gridSize="10" guides="1" tooltips="1" connect="1" arrows="1" fold="1" page="1" pageScale="1" pageWidth="1169" pageHeight="827" math="0" shadow="0">
      <root>
        <mxCell id="0" />
        <mxCell id="1" parent="0" />
        <mxCell id="-Z1Upk9mLtKJOAkQwrvY-7" value="&amp;lt;&amp;lt;usage&amp;gt;&amp;gt;" style="edgeStyle=orthogonalEdgeStyle;rounded=0;orthogonalLoop=1;jettySize=auto;html=1;dashed=1;endArrow=blockThin;endFill=1;dashPattern=8 8;" edge="1" parent="1" source="-Z1Upk9mLtKJOAkQwrvY-3" target="-Z1Upk9mLtKJOAkQwrvY-5">
          <mxGeometry x="-0.0667" relative="1" as="geometry">
            <Array as="points">
              <mxPoint x="530" y="200" />
              <mxPoint x="530" y="120" />
            </Array>
            <mxPoint as="offset" />
          </mxGeometry>
        </mxCell>
        <mxCell id="-Z1Upk9mLtKJOAkQwrvY-3" value="User Interaction" style="shape=folder;fontStyle=1;spacingTop=10;tabWidth=40;tabHeight=14;tabPosition=left;html=1;whiteSpace=wrap;" vertex="1" parent="1">
          <mxGeometry x="570" y="160" width="170" height="80" as="geometry" />
        </mxCell>
        <mxCell id="-Z1Upk9mLtKJOAkQwrvY-10" value="&amp;lt;&amp;lt;access&amp;gt;&amp;gt;" style="edgeStyle=orthogonalEdgeStyle;shape=connector;rounded=0;orthogonalLoop=1;jettySize=auto;html=1;dashed=1;strokeColor=default;align=center;verticalAlign=middle;fontFamily=Helvetica;fontSize=11;fontColor=default;labelBackgroundColor=default;endArrow=blockThin;endFill=1;dashPattern=8 8;" edge="1" parent="1" source="-Z1Upk9mLtKJOAkQwrvY-4" target="-Z1Upk9mLtKJOAkQwrvY-5">
          <mxGeometry relative="1" as="geometry">
            <Array as="points">
              <mxPoint x="280" y="200" />
              <mxPoint x="280" y="120" />
            </Array>
          </mxGeometry>
        </mxCell>
        <mxCell id="-Z1Upk9mLtKJOAkQwrvY-4" value="Evaluation" style="shape=folder;fontStyle=1;spacingTop=10;tabWidth=40;tabHeight=14;tabPosition=left;html=1;whiteSpace=wrap;" vertex="1" parent="1">
          <mxGeometry x="70" y="150" width="170" height="80" as="geometry" />
        </mxCell>
        <mxCell id="-Z1Upk9mLtKJOAkQwrvY-8" value="&amp;lt;&amp;lt;usage&amp;gt;&amp;gt;" style="edgeStyle=orthogonalEdgeStyle;shape=connector;rounded=0;orthogonalLoop=1;jettySize=auto;html=1;dashed=1;strokeColor=default;align=center;verticalAlign=middle;fontFamily=Helvetica;fontSize=11;fontColor=default;labelBackgroundColor=default;endArrow=blockThin;endFill=1;entryX=0;entryY=0;entryDx=105;entryDy=14;entryPerimeter=0;exitX=0.618;exitY=0.875;exitDx=0;exitDy=0;exitPerimeter=0;dashPattern=8 8;" edge="1" parent="1" source="-Z1Upk9mLtKJOAkQwrvY-5" target="-Z1Upk9mLtKJOAkQwrvY-6">
          <mxGeometry relative="1" as="geometry" />
        </mxCell>
        <mxCell id="-Z1Upk9mLtKJOAkQwrvY-5" value="Generation" style="shape=folder;fontStyle=1;spacingTop=10;tabWidth=40;tabHeight=14;tabPosition=left;html=1;whiteSpace=wrap;" vertex="1" parent="1">
          <mxGeometry x="320" y="80" width="170" height="80" as="geometry" />
        </mxCell>
        <mxCell id="-Z1Upk9mLtKJOAkQwrvY-6" value="Retrieval" style="shape=folder;fontStyle=1;spacingTop=10;tabWidth=40;tabHeight=14;tabPosition=left;html=1;whiteSpace=wrap;" vertex="1" parent="1">
          <mxGeometry x="320" y="240" width="170" height="80" as="geometry" />
        </mxCell>
        <mxCell id="-Z1Upk9mLtKJOAkQwrvY-9" value="&amp;lt;&amp;lt;access&amp;gt;&amp;gt;" style="edgeStyle=orthogonalEdgeStyle;shape=connector;rounded=0;orthogonalLoop=1;jettySize=auto;html=1;dashed=1;strokeColor=default;align=center;verticalAlign=middle;fontFamily=Helvetica;fontSize=11;fontColor=default;labelBackgroundColor=default;endArrow=blockThin;endFill=1;dashPattern=8 8;" edge="1" parent="1" source="-Z1Upk9mLtKJOAkQwrvY-4" target="-Z1Upk9mLtKJOAkQwrvY-6">
          <mxGeometry relative="1" as="geometry">
            <Array as="points">
              <mxPoint x="280" y="200" />
              <mxPoint x="280" y="280" />
            </Array>
          </mxGeometry>
        </mxCell>
      </root>
    </mxGraphModel>
  </diagram>
</mxfile>
